<?xml version="1.0" standalone="no"?>
<!DOCTYPE svg PUBLIC "-//W3C//DTD SVG 20010904//EN"
 "http://www.w3.org/TR/2001/REC-SVG-20010904/DTD/svg10.dtd">
<svg version="1.0" xmlns="http://www.w3.org/2000/svg"
 width="512.000000pt" height="512.000000pt" viewBox="0 0 512.000000 512.000000"
 preserveAspectRatio="xMidYMid meet">
<metadata>
Created by potrace 1.16, written by Peter Selinger 2001-2019
</metadata>
<g transform="translate(0.000000,512.000000) scale(0.100000,-0.100000)"
fill="#000000" stroke="none">
<path d="M3380 5114 c-243 -41 -452 -121 -632 -240 -98 -65 -106 -72 -233
-199 -127 -127 -134 -135 -199 -233 -106 -160 -177 -334 -227 -557 -19 -83
-19 -497 0 -580 50 -223 121 -397 227 -557 65 -98 72 -106 199 -233 127 -127
135 -134 233 -199 160 -106 334 -177 557 -227 83 -19 497 -19 580 0 223 50
397 121 557 227 98 65 106 72 233 199 127 127 134 135 199 233 106 160 177
334 227 557 22 97 19 498 -5 600 -26 114 -75 259 -113 338 -18 37 -33 70 -33
72 0 11 -85 143 -132 204 -64 85 -214 235 -299 299 -61 47 -193 132 -204 132
-2 0 -36 15 -74 34 -78 38 -199 79 -316 108 -64 15 -125 20 -300 23 -121 2
-231 2 -245 -1z m160 -154 l0 -50 55 0 55 0 0 50 c0 33 4 50 13 50 73 -1 290
-39 305 -55 3 -3 -1 -23 -8 -45 -8 -25 -10 -44 -4 -49 13 -11 95 -33 101 -27
3 2 11 22 18 43 10 28 18 37 32 35 23 -4 152 -67 220 -108 l53 -31 -30 -39
-29 -39 32 -28 c38 -33 70 -44 75 -28 2 7 14 24 27 39 l23 27 114 -113 113
-114 -27 -23 c-15 -13 -32 -25 -39 -27 -16 -5 -5 -37 30 -77 23 -27 32 -31 42
-22 8 6 25 20 38 31 l24 20 31 -52 c41 -69 104 -198 108 -221 2 -14 -7 -22
-35 -32 -21 -7 -41 -15 -43 -18 -6 -6 16 -88 27 -101 5 -6 24 -4 49 4 22 7 42
11 45 8 16 -15 54 -232 55 -305 0 -9 -17 -13 -50 -13 l-50 0 0 -55 0 -55 50 0
c33 0 50 -4 50 -12 -1 -74 -39 -291 -55 -306 -3 -3 -23 1 -45 8 -25 8 -44 10
-49 4 -11 -13 -33 -95 -27 -101 2 -3 22 -11 43 -18 28 -10 37 -18 35 -32 -5
-25 -67 -153 -106 -219 l-33 -54 -39 30 -39 29 -28 -32 c-33 -38 -44 -70 -28
-75 7 -2 24 -14 39 -27 l27 -23 -113 -114 -114 -113 -23 27 c-13 15 -25 33
-28 40 -3 10 -12 9 -37 -6 -71 -41 -73 -45 -40 -90 l30 -39 -55 -33 c-65 -39
-193 -101 -218 -106 -14 -2 -22 7 -32 35 -7 21 -15 41 -18 43 -6 6 -88 -16
-101 -27 -6 -5 -4 -24 4 -49 7 -22 11 -42 8 -45 -15 -16 -232 -54 -305 -55 -9
0 -13 17 -13 50 l0 50 -55 0 -55 0 0 -50 c0 -33 -4 -50 -12 -50 -74 1 -291 39
-306 55 -3 3 1 23 8 45 8 25 10 44 4 49 -13 11 -95 33 -101 27 -3 -2 -11 -22
-18 -43 -10 -28 -18 -37 -32 -35 -25 5 -153 67 -219 106 l-54 33 30 39 29 39
-32 28 c-38 33 -70 44 -75 28 -2 -7 -14 -24 -27 -39 l-23 -27 -114 113 -113
114 27 23 c15 13 33 25 40 28 10 3 9 12 -6 37 -41 71 -45 73 -90 40 l-39 -30
-33 55 c-39 65 -101 193 -106 218 -2 14 7 22 35 32 21 7 41 15 43 18 6 6 -16
88 -27 101 -5 6 -24 4 -49 -4 -22 -7 -42 -11 -45 -8 -16 15 -54 232 -55 306 0
8 17 12 50 12 l50 0 0 55 0 55 -50 0 c-33 0 -50 4 -50 13 1 73 39 290 55 305
3 3 23 -1 45 -8 25 -8 44 -10 49 -4 11 13 33 95 27 101 -2 3 -22 11 -43 18
-28 10 -37 18 -35 32 4 23 67 152 108 220 l31 53 39 -30 39 -29 28 32 c33 38
44 70 28 75 -7 2 -24 14 -39 27 l-27 23 113 114 114 113 23 -27 c13 -15 25
-33 28 -40 3 -10 12 -9 37 6 71 41 73 45 40 90 l-30 39 55 33 c65 39 193 101
218 106 14 2 22 -7 32 -35 7 -21 15 -41 18 -43 6 -6 88 16 101 27 6 5 4 24 -4
49 -7 22 -11 42 -8 45 16 16 195 49 291 54 26 1 27 -1 27 -49z"/>
<path d="M3475 4714 c-78 -9 -230 -47 -304 -77 -73 -29 -212 -107 -239 -134
-7 -7 -17 -13 -22 -13 -12 0 -210 -198 -210 -210 0 -5 -6 -15 -13 -22 -28 -29
-106 -168 -135 -243 -58 -147 -75 -241 -75 -420 0 -179 17 -273 75 -420 29
-75 107 -214 135 -243 7 -7 13 -17 13 -22 0 -12 198 -210 210 -210 5 0 15 -6
22 -13 29 -28 168 -106 243 -135 147 -58 241 -75 420 -75 179 0 273 17 420 75
75 29 214 107 243 135 7 7 17 13 22 13 12 0 210 198 210 210 0 5 6 15 13 22
28 29 106 168 135 243 58 147 75 241 75 420 0 172 -16 267 -69 406 -22 60
-117 237 -133 249 -4 3 -18 21 -31 40 -32 45 -145 158 -190 190 -19 13 -37 27
-40 31 -12 16 -189 111 -249 133 -111 43 -235 66 -365 70 -67 2 -139 2 -161 0z
m280 -124 c74 -12 136 -29 172 -45 17 -8 36 -15 41 -15 16 0 132 -62 198 -106
123 -81 251 -229 330 -381 19 -36 34 -69 34 -75 0 -5 7 -24 15 -41 72 -156 72
-508 0 -664 -8 -17 -15 -36 -15 -41 0 -16 -62 -132 -106 -198 -50 -76 -182
-208 -258 -258 -66 -44 -182 -106 -198 -106 -5 0 -24 -7 -41 -15 -156 -72
-508 -72 -664 0 -17 8 -36 15 -41 15 -16 0 -132 62 -198 106 -76 50 -208 182
-258 258 -44 66 -106 182 -106 198 0 5 -7 24 -15 41 -35 76 -54 192 -54 332 0
140 19 256 54 332 8 17 15 36 15 41 0 16 62 132 106 198 50 76 182 208 258
258 66 44 182 106 198 106 5 0 24 7 41 15 35 16 98 33 167 45 61 10 264 10
325 0z"/>
<path d="M3515 4459 c-83 -6 -183 -26 -200 -39 -5 -4 -27 -13 -48 -20 -192
-62 -415 -285 -477 -477 -7 -21 -16 -42 -20 -48 -20 -27 -41 -171 -41 -280 0
-109 21 -253 41 -280 4 -5 13 -27 20 -48 62 -192 285 -415 477 -477 21 -7 43
-16 48 -20 27 -20 171 -41 280 -41 109 0 253 21 280 41 6 4 27 13 48 20 192
62 415 285 477 477 7 21 16 43 20 48 4 6 15 44 24 86 32 145 18 374 -29 484
-7 17 -16 40 -19 52 -10 32 -67 135 -96 173 -32 42 -148 158 -190 190 -38 29
-141 86 -173 96 -12 3 -35 12 -52 19 -84 36 -235 54 -370 44z m232 -123 c4 -4
-32 -102 -67 -181 -5 -11 -20 -46 -34 -77 -22 -49 -30 -58 -51 -58 -21 0 -29
9 -51 58 -14 31 -29 66 -34 77 -24 54 -70 170 -70 177 0 4 17 9 38 11 46 6
262 0 269 -7z m-400 -91 c7 -22 17 -49 23 -60 5 -11 19 -44 30 -74 65 -169 97
-202 195 -202 59 0 109 22 132 59 6 10 28 59 48 108 20 49 42 103 50 119 7 17
17 43 21 58 3 16 13 31 22 34 30 12 193 -91 271 -171 25 -25 43 -47 40 -49
-15 -11 -107 -85 -120 -97 -8 -8 -46 -42 -83 -74 -97 -86 -118 -151 -73 -230
43 -75 84 -88 325 -101 l124 -7 -7 -52 c-4 -28 -14 -76 -22 -106 -17 -63 -77
-195 -93 -205 -6 -3 -41 14 -79 39 -38 25 -72 46 -76 46 -3 0 -25 13 -48 29
-119 80 -200 86 -270 17 -61 -59 -60 -80 22 -419 9 -36 7 -39 -17 -49 -16 -7
-86 -12 -167 -12 -81 0 -151 5 -167 12 -24 10 -26 13 -17 49 68 283 73 311 59
356 -33 111 -149 142 -266 71 -32 -21 -72 -44 -89 -53 -16 -9 -56 -33 -88 -54
-31 -21 -62 -35 -67 -32 -16 10 -76 143 -93 205 -8 30 -18 79 -22 108 l-7 52
34 0 c71 0 295 20 327 30 43 12 79 45 97 89 32 77 10 136 -82 217 -37 32 -78
69 -92 81 -13 12 -44 37 -68 55 -24 18 -44 36 -44 39 0 8 106 108 143 134 53
39 142 84 161 82 13 -1 24 -16 33 -42z m-306 -354 c9 -9 46 -42 83 -74 110
-98 92 -122 -99 -132 -66 -3 -133 -8 -149 -11 -28 -6 -28 -6 -23 37 8 69 26
129 59 196 l31 63 41 -32 c22 -18 48 -39 57 -47z m1261 -41 c32 -96 38 -117
38 -149 0 -30 -2 -32 -27 -27 -16 3 -82 8 -148 11 -218 11 -220 31 -19 202 27
23 60 51 74 61 l25 20 21 -37 c12 -20 28 -56 36 -81z m-952 -605 c11 -13 11
-29 0 -88 -7 -40 -16 -81 -20 -92 -5 -11 -13 -45 -19 -75 -17 -80 -21 -84 -62
-63 -19 10 -36 20 -39 23 -3 3 -30 22 -60 42 -31 21 -69 51 -85 68 -28 29 -28
30 -9 45 10 8 31 20 47 27 15 7 27 16 27 19 0 4 11 10 25 13 14 4 25 11 25 16
0 6 5 10 10 10 6 0 34 16 63 35 57 39 78 43 97 20z m587 -20 c29 -19 57 -35
63 -35 5 0 10 -4 10 -10 0 -5 11 -12 25 -16 14 -3 25 -9 25 -13 0 -3 12 -12
28 -19 15 -7 36 -19 46 -27 19 -15 19 -16 -9 -45 -16 -17 -54 -47 -85 -68 -30
-20 -57 -39 -60 -42 -3 -3 -20 -13 -39 -23 -41 -21 -45 -17 -62 63 -6 30 -14
64 -19 75 -4 11 -13 52 -20 92 -11 59 -11 75 0 88 19 23 40 19 97 -20z"/>
<path d="M3565 3802 c-65 -7 -129 -53 -160 -116 -21 -40 -21 -142 0 -182 37
-76 103 -115 190 -115 125 0 206 81 206 206 0 134 -99 221 -236 207z m74 -127
c53 -27 64 -102 21 -145 -57 -57 -161 -13 -160 67 1 28 25 64 51 79 31 17 54
17 88 -1z"/>
<path d="M100 1590 l0 -1440 450 0 450 0 0 525 0 525 -55 0 -55 0 0 -475 0
-475 -45 0 -45 0 0 1340 0 1340 45 0 45 0 0 -825 0 -825 55 0 55 0 0 875 0
875 -450 0 -450 0 0 -1440z m590 0 l0 -1340 -245 0 -245 0 0 45 0 45 125 0
125 0 0 55 0 55 -125 0 -125 0 0 45 0 45 75 0 75 0 0 55 0 55 -75 0 -75 0 0
45 0 45 75 0 75 0 0 55 0 55 -75 0 -75 0 0 45 0 45 125 0 125 0 0 55 0 55
-125 0 -125 0 0 45 0 45 75 0 75 0 0 55 0 55 -75 0 -75 0 0 45 0 45 75 0 75 0
0 50 0 50 -75 0 -75 0 0 50 0 50 125 0 125 0 0 50 0 50 -125 0 -125 0 0 50 0
50 75 0 75 0 0 50 0 50 -75 0 -75 0 0 45 0 45 75 0 75 0 0 55 0 55 -75 0 -75
0 0 45 0 45 125 0 125 0 0 55 0 55 -125 0 -125 0 0 45 0 45 75 0 75 0 0 55 0
55 -75 0 -75 0 0 45 0 45 75 0 75 0 0 55 0 55 -75 0 -75 0 0 45 0 45 125 0
125 0 0 55 0 55 -125 0 -125 0 0 45 0 45 245 0 245 0 0 -1340z"/>
<path d="M1272 3009 c-55 -28 -107 -89 -121 -144 -8 -31 -11 -361 -11 -1092 0
-995 1 -1051 18 -1083 134 -254 176 -333 228 -427 15 -27 34 -63 43 -80 14
-30 19 -33 61 -33 37 0 47 4 56 23 6 12 24 45 39 72 15 28 49 91 75 141 26 49
61 115 77 145 17 29 47 84 67 122 l36 68 0 539 0 540 -50 0 -49 0 -3 -496 -3
-496 -33 -29 c-45 -40 -84 -39 -128 5 l-34 34 0 516 0 516 -50 0 -50 0 0 -506
c0 -436 -2 -510 -15 -539 -28 -58 -94 -72 -144 -29 l-31 26 0 764 0 764 245 0
245 0 0 -225 0 -225 50 0 50 0 0 479 c0 459 -1 481 -20 527 -24 55 -60 94
-115 123 -36 19 -56 21 -215 21 -158 0 -179 -2 -218 -21z m404 -109 c44 -41
64 -96 64 -182 l0 -78 -245 0 -245 0 0 90 c0 97 10 129 52 166 35 32 42 33
200 31 141 -2 147 -3 174 -27z m64 -415 l0 -45 -245 0 -245 0 0 45 0 45 245 0
245 0 0 -45z m-234 -1796 c12 -19 88 -49 127 -49 l37 0 -36 -70 -37 -70 -107
0 -108 0 -17 38 c-10 20 -26 49 -36 64 -11 14 -19 28 -19 31 0 2 25 7 56 10
38 4 66 14 87 31 36 29 43 30 53 15z"/>
<path d="M1980 1490 l0 -149 62 -3 61 -3 23 -63 c35 -97 47 -182 51 -358 5
-172 -13 -302 -55 -410 l-20 -49 -61 -3 -61 -3 0 -149 0 -150 160 0 160 0 0
50 0 50 -105 0 -105 0 0 45 0 45 145 0 145 0 0 -95 0 -95 450 0 450 0 0 150 0
150 -53 0 c-60 0 -65 5 -91 95 -41 144 -59 316 -46 445 12 118 35 229 62 298
l20 52 54 0 54 0 0 150 0 150 -200 0 -200 0 0 -50 0 -50 150 0 150 0 0 -50 0
-50 -545 0 -545 0 0 50 0 50 350 0 350 0 0 50 0 50 -405 0 -405 0 0 -150z
m1065 -172 c-62 -201 -81 -446 -50 -628 17 -98 39 -197 50 -223 6 -15 -1 -17
-74 -17 l-81 0 0 242 c0 283 -5 305 -81 380 -34 33 -64 52 -101 63 -64 19 -80
19 -141 0 -67 -20 -120 -61 -153 -120 l-29 -50 -3 -257 -3 -258 -79 0 -79 0
10 33 c32 102 40 145 51 274 9 111 9 172 0 282 -7 77 -16 151 -21 163 -8 21
-17 51 -36 116 l-6 22 416 0 417 0 -7 -22z m-351 -299 c83 -42 81 -29 84 -421
l3 -348 -46 0 -45 0 0 225 0 225 -55 0 -55 0 0 -225 0 -225 -45 0 -45 0 0 337
0 336 25 44 c14 23 27 43 28 43 1 0 20 7 42 15 53 19 61 18 109 -6z m486 -724
l0 -45 -145 0 -145 0 0 45 0 45 145 0 145 0 0 -45z"/>
<path d="M4280 1400 c-59 -15 -210 -79 -315 -135 -55 -29 -113 -60 -130 -69
-77 -40 -166 -70 -315 -106 -176 -41 -200 -50 -239 -86 -53 -47 -71 -89 -71
-166 0 -151 98 -228 361 -285 77 -16 145 -18 784 -18 l700 0 3 94 c2 62 8 101
17 115 12 17 15 71 15 303 0 277 0 283 -22 302 -35 33 -89 37 -170 15 -14 -4
-18 -17 -18 -60 l0 -55 -47 -21 c-30 -13 -77 -23 -123 -26 -74 -4 -75 -4 -110
30 -19 19 -70 67 -112 106 -74 69 -79 72 -125 71 -26 -1 -64 -5 -83 -9z m154
-119 l59 -59 -21 -29 c-19 -27 -119 -123 -171 -166 -40 -33 -193 -116 -243
-133 -47 -15 -54 -15 -136 5 -48 12 -125 26 -172 32 -84 10 -221 64 -203 79 4
4 44 17 87 29 l80 23 18 -24 c10 -13 20 -30 23 -39 11 -34 75 -27 75 7 0 8 -7
29 -16 45 -17 34 -9 53 26 62 15 4 26 -6 47 -39 31 -49 65 -58 83 -23 10 17 7
28 -16 61 -27 39 -28 41 -9 54 30 22 43 17 70 -25 30 -48 53 -63 77 -50 25 14
22 49 -7 89 -31 42 -31 44 0 58 39 18 41 16 81 -44 31 -46 41 -55 63 -52 38 4
38 42 1 98 -27 40 -28 45 -12 54 13 8 132 43 152 45 3 1 32 -26 64 -58z m584
-72 l3 -86 -33 -7 c-56 -11 -174 -76 -227 -125 -55 -50 -115 -143 -132 -203
l-10 -37 -112 -3 c-102 -3 -119 0 -192 26 -44 15 -104 35 -133 44 l-53 15 63
34 c115 64 172 106 267 200 52 51 95 93 96 93 1 0 13 -10 26 -21 22 -19 32
-21 119 -16 97 5 161 25 221 68 25 17 29 27 29 65 0 45 0 45 33 42 l32 -3 3
-86z m-13 -428 c-11 -12 -49 -17 -157 -21 -79 -4 -144 -6 -146 -5 -6 4 32 83
58 120 38 55 123 119 196 149 l59 24 3 -126 c2 -102 0 -129 -13 -141z m-1537
184 c47 -39 136 -82 194 -94 29 -5 100 -19 158 -30 58 -12 161 -39 230 -60
l125 -40 -125 0 c-200 -1 -527 18 -620 35 -122 23 -150 36 -150 72 0 42 39 94
90 120 56 28 62 28 98 -3z m24 -275 c236 -27 590 -33 1028 -16 239 9 443 16
453 16 14 0 17 -9 17 -45 l0 -45 -577 0 c-318 0 -620 5 -671 10 -140 13 -260
40 -327 71 -37 18 -49 27 -31 23 16 -3 65 -9 108 -14z"/>
</g>
</svg>
